<svg xmlns="http://www.w3.org/2000/svg" xmlns:xlink="http://www.w3.org/1999/xlink" width="1080" zoomAndPan="magnify" viewBox="0 0 810 809.999993" height="1080" preserveAspectRatio="xMidYMid meet" version="1.0"><defs><g/><clipPath id="eff908b54d"><path d="M 0.28125 12 L 451 12 L 451 317 L 0.28125 317 Z M 0.28125 12 " clip-rule="nonzero"/></clipPath><clipPath id="f7705b95f1"><rect x="0" width="452" y="0" height="417"/></clipPath><clipPath id="92ec0fc1d8"><rect x="0" width="367" y="0" height="442"/></clipPath></defs><g transform="matrix(1, 0, 0, 1, 239, 188)"><g clip-path="url(#f7705b95f1)"><g clip-path="url(#eff908b54d)"><g fill="#000000" fill-opacity="1"><g transform="translate(0.49194, 316.398335)"><g><path d="M 0 -303.46875 L 115.3125 -303.46875 L 115.3125 -298.46875 C 101.4375 -298.46875 92.066406 -297.21875 87.203125 -294.71875 C 82.347656 -292.226562 82.144531 -286.265625 86.59375 -276.828125 L 192.734375 -57.453125 L 228.953125 -161.09375 L 174.421875 -273.5 C 169.984375 -283.207031 165.472656 -289.726562 160.890625 -293.0625 C 156.316406 -296.394531 148.335938 -298.0625 136.953125 -298.0625 L 136.953125 -303.46875 L 312.203125 -303.46875 L 312.203125 -298.0625 C 300.554688 -298.0625 292.164062 -296.394531 287.03125 -293.0625 C 281.894531 -289.726562 277.519531 -283.066406 273.90625 -273.078125 L 253.515625 -215.21875 L 329.6875 -57.453125 L 405.453125 -273.5 C 408.503906 -282.375 408.503906 -288.6875 405.453125 -292.4375 C 402.398438 -296.1875 394.351562 -298.0625 381.3125 -298.0625 L 381.3125 -303.46875 L 449.578125 -303.46875 L 449.578125 -298.0625 C 437.648438 -298.0625 429.117188 -296.394531 423.984375 -293.0625 C 418.847656 -289.726562 414.476562 -283.066406 410.875 -273.078125 L 315.546875 0 L 306.796875 0 L 232.28125 -154.03125 L 178.171875 0 L 169.421875 0 L 37.46875 -273.5 C 34.414062 -280.15625 31.429688 -285.21875 28.515625 -288.6875 C 25.597656 -292.15625 21.988281 -294.582031 17.6875 -295.96875 C 13.382812 -297.363281 7.488281 -298.0625 0 -298.0625 Z M 250.1875 -221.875 L 268.5 -273.5 C 271.550781 -282.375 271.550781 -288.6875 268.5 -292.4375 C 265.445312 -296.1875 257.398438 -298.0625 244.359375 -298.0625 C 233.535156 -297.78125 226.390625 -296.25 222.921875 -293.46875 C 219.453125 -290.695312 219.796875 -285.148438 223.953125 -276.828125 Z M 250.1875 -221.875 "/></g></g></g></g></g></g><g transform="matrix(1, 0, 0, 1, 153, 176)"><g clip-path="url(#92ec0fc1d8)"><g fill="#ffffff" fill-opacity="1"><g transform="translate(19.787241, 338.404427)"><g><path d="M 73.1875 21.933594 L -15.515625 21.933594 L -15.515625 -27.5 L 6.421875 -27.5 C 8.910156 -27.5 11.898438 -28.730469 15.382812 -31.1875 C 19.164062 -33.855469 21.816406 -37.0625 23.339844 -40.804688 L 116.71875 -264.394531 L 136.957031 -255.941406 L 116.675781 -247.589844 L 104.691406 -276.691406 C 103.539062 -279.570312 102.308594 -281.273438 100.992188 -281.796875 C 96.472656 -283.605469 91.34375 -284.507812 85.597656 -284.507812 L 63.664062 -284.507812 L 63.664062 -333.945312 L 175.09375 -333.945312 L 293.292969 -51.699219 C 297.726562 -41.355469 302.058594 -34.566406 306.289062 -31.335938 C 309.628906 -28.777344 314.105469 -27.5 319.710938 -27.5 L 341.648438 -27.5 L 341.648438 21.933594 L 177.511719 21.933594 L 177.511719 -27.5 L 211 -27.5 C 212.277344 -27.5 213.269531 -27.574219 213.980469 -27.722656 L 214.042969 -27.726562 C 213.792969 -27.636719 213.511719 -27.5 213.203125 -27.324219 C 210.726562 -25.90625 209.195312 -23.832031 208.605469 -21.101562 C 209.207031 -23.898438 208.25 -28.320312 205.734375 -34.363281 L 181.289062 -93.96875 L 201.585938 -102.289062 L 201.585938 -80.355469 L 78.324219 -80.355469 L 78.324219 -102.289062 L 98.582031 -93.882812 L 70.335938 -25.832031 C 70.007812 -25.03125 69.796875 -24.347656 69.691406 -23.789062 L 69.675781 -23.707031 C 69.683594 -23.875 69.675781 -24.070312 69.652344 -24.300781 C 69.472656 -26.070312 68.757812 -27.5625 67.507812 -28.78125 C 68.386719 -27.925781 70.277344 -27.5 73.1875 -27.5 L 95.121094 -27.5 L 95.121094 21.933594 Z M 73.1875 -21.933594 L 73.1875 0 L 51.253906 0 L 51.253906 -5.5625 L 73.1875 -5.5625 L 73.1875 16.371094 C 58.40625 16.371094 46.316406 11.804688 36.925781 2.671875 C 30.535156 -3.539062 26.898438 -11.058594 26.003906 -19.890625 C 25.28125 -27.03125 26.554688 -34.617188 29.816406 -42.648438 L 63.679688 -124.226562 L 216.296875 -124.226562 L 246.230469 -51.234375 C 252.269531 -36.734375 254.023438 -23.609375 251.488281 -11.851562 C 249.332031 -1.847656 243.839844 5.683594 235.015625 10.738281 C 228.464844 14.492188 220.457031 16.371094 211 16.371094 L 199.445312 16.371094 L 199.445312 -5.5625 L 221.382812 -5.5625 L 221.382812 0 L 199.445312 0 L 199.445312 -21.933594 L 319.710938 -21.933594 L 319.710938 0 L 297.777344 0 L 297.777344 -5.5625 L 319.710938 -5.5625 L 319.710938 16.371094 C 304.203125 16.371094 290.847656 12.085938 279.636719 3.515625 C 269.316406 -4.378906 260.378906 -17.136719 252.828125 -34.753906 L 140.265625 -303.535156 L 160.5 -312.007812 L 160.5 -290.074219 L 85.597656 -290.074219 L 85.597656 -312.007812 L 107.535156 -312.007812 L 107.535156 -306.445312 L 85.597656 -306.445312 L 85.597656 -328.378906 C 96.976562 -328.378906 107.539062 -326.429688 117.285156 -322.53125 C 130.238281 -317.351562 139.5625 -307.640625 145.257812 -293.398438 L 160.703125 -255.882812 L 63.96875 -24.25 C 59.214844 -12.585938 51.453125 -2.949219 40.683594 4.652344 C 29.617188 12.464844 18.195312 16.371094 6.421875 16.371094 L 6.421875 -5.5625 L 28.355469 -5.5625 L 28.355469 0 L 6.421875 0 L 6.421875 -21.933594 Z M 160.199219 -241.082031 L 101.136719 -99.414062 L 80.890625 -107.855469 L 80.890625 -129.789062 L 199.019531 -129.789062 L 199.019531 -107.855469 L 178.773438 -99.414062 L 119.707031 -241.082031 L 139.953125 -249.519531 Z M 139.953125 -306.523438 L 231.929688 -85.917969 L 47.980469 -85.917969 L 119.707031 -257.960938 Z M 139.953125 -306.523438 "/></g></g></g><g fill="#000000" fill-opacity="1"><g transform="translate(19.787241, 338.404427)"><g><path d="M 73.1875 0 L 6.421875 0 L 6.421875 -5.5625 C 13.554688 -5.5625 20.757812 -8.128906 28.03125 -13.265625 C 35.3125 -18.398438 40.519531 -24.820312 43.65625 -32.53125 L 136.953125 -255.9375 L 124.96875 -285.046875 C 121.550781 -293.609375 116.273438 -299.316406 109.140625 -302.171875 C 102.003906 -305.023438 94.15625 -306.453125 85.59375 -306.453125 L 85.59375 -312.015625 L 160.5 -312.015625 L 273.0625 -43.234375 C 279.050781 -29.242188 285.679688 -19.46875 292.953125 -13.90625 C 300.234375 -8.34375 309.15625 -5.5625 319.71875 -5.5625 L 319.71875 0 L 199.453125 0 L 199.453125 -5.5625 L 211 -5.5625 C 222.132812 -5.5625 228.484375 -9.195312 230.046875 -16.46875 C 231.617188 -23.75 230.265625 -32.523438 225.984375 -42.796875 L 201.59375 -102.296875 L 78.328125 -102.296875 L 50.078125 -34.234375 C 46.367188 -25.109375 47.082031 -18.046875 52.21875 -13.046875 C 57.351562 -8.054688 64.34375 -5.5625 73.1875 -5.5625 Z M 139.953125 -249.53125 L 80.890625 -107.859375 L 199.015625 -107.859375 Z M 139.953125 -249.53125 "/></g></g></g></g></g></svg>